<svg width="31" height="22" viewBox="0 0 31 22" fill="none" xmlns="http://www.w3.org/2000/svg">
<path d="M11.4498 20.8951L11.4413 20.8916L11.4144 20.8776C11.2576 20.795 11.102 20.7102 10.9477 20.6232C9.09258 19.568 7.35891 18.3284 5.77547 16.9249C2.97122 14.4201 0 10.7031 0 6.12508C0 2.70908 3.0029 8.27764e-05 6.62735 8.27764e-05C7.63492 -0.00464155 8.63065 0.208147 9.54046 0.622622C10.4503 1.0371 11.2508 1.6426 11.8824 2.39408C12.5142 1.64244 13.3149 1.03685 14.225 0.622368C15.135 0.207886 16.131 -0.00481723 17.1387 8.27764e-05C20.762 8.27764e-05 23.7649 2.70908 23.7649 6.12508C23.7649 10.7042 20.7937 14.4212 17.9894 16.9237C16.406 18.3272 14.6723 19.5669 12.8172 20.6221C12.6629 20.7094 12.5073 20.7946 12.3504 20.8776L12.3236 20.8916L12.3151 20.8962L12.3114 20.8974C12.1793 20.9644 12.032 20.9995 11.8824 20.9995C11.7329 20.9995 11.5856 20.9644 11.4534 20.8974L11.4498 20.8951Z" fill="white"/>
<path d="M22.2172 18.9668L25.5495 12.7335H23.2514V8.70012L19.8042 14.9335H22.2172V18.9668ZM22.6768 21.1668C21.6171 21.1668 20.6213 20.9743 19.6892 20.5893C18.7572 20.2043 17.9465 19.6818 17.257 19.0218C16.5676 18.3618 16.0218 17.5857 15.6196 16.6935C15.2174 15.8012 15.0164 14.8479 15.0164 13.8335C15.0164 12.819 15.2174 11.8657 15.6196 10.9735C16.0218 10.0812 16.5676 9.30512 17.257 8.64512C17.9465 7.98512 18.7572 7.46262 19.6892 7.07762C20.6213 6.69262 21.6171 6.50012 22.6768 6.50012C23.7365 6.50012 24.7324 6.69262 25.6644 7.07762C26.5964 7.46262 27.4072 7.98512 28.0966 8.64512C28.7861 9.30512 29.3319 10.0812 29.734 10.9735C30.1362 11.8657 30.3373 12.819 30.3373 13.8335C30.3373 14.8479 30.1362 15.8012 29.734 16.6935C29.3319 17.5857 28.7861 18.3618 28.0966 19.0218C27.4072 19.6818 26.5964 20.2043 25.6644 20.5893C24.7324 20.9743 23.7365 21.1668 22.6768 21.1668Z" fill="#894189"/>
<path d="M22.6073 18.5001L25.6366 12.8334H23.5474V9.16675L20.4136 14.8334H22.6073V18.5001ZM23.0251 20.5001C22.0617 20.5001 21.1564 20.3251 20.3091 19.9751C19.4618 19.6251 18.7248 19.1501 18.098 18.5501C17.4713 17.9501 16.9751 17.2445 16.6095 16.4334C16.2438 15.6223 16.061 14.7556 16.061 13.8334C16.061 12.9112 16.2438 12.0445 16.6095 11.2334C16.9751 10.4223 17.4713 9.71675 18.098 9.11675C18.7248 8.51675 19.4618 8.04175 20.3091 7.69175C21.1564 7.34175 22.0617 7.16675 23.0251 7.16675C23.9885 7.16675 24.8938 7.34175 25.7411 7.69175C26.5884 8.04175 27.3254 8.51675 27.9522 9.11675C28.5789 9.71675 29.0751 10.4223 29.4407 11.2334C29.8064 12.0445 29.9892 12.9112 29.9892 13.8334C29.9892 14.7556 29.8064 15.6223 29.4407 16.4334C29.0751 17.2445 28.5789 17.9501 27.9522 18.5501C27.3254 19.1501 26.5884 19.6251 25.7411 19.9751C24.8938 20.3251 23.9885 20.5001 23.0251 20.5001Z" fill="white"/>
</svg>
