<svg width="31" height="30" viewBox="0 0 31 30" fill="none" xmlns="http://www.w3.org/2000/svg">
<g filter="url(#filter0_d_5_250)">
<path d="M14.3634 17.9945H16.3564V16.6714C17.3054 16.5126 18.1216 16.1686 18.8049 15.6393C19.4882 15.1101 19.8298 14.325 19.8298 13.2842C19.8298 12.5432 19.602 11.864 19.1465 11.2466C18.691 10.6291 17.7799 10.091 16.4133 9.63235C15.2745 9.27952 14.4868 8.97079 14.0502 8.70616C13.6137 8.44154 13.3954 8.07988 13.3954 7.6212C13.3954 7.16252 13.571 6.80086 13.9221 6.53624C14.2732 6.27161 14.781 6.1393 15.4453 6.1393C16.0527 6.1393 16.5272 6.27602 16.8688 6.54947C17.2105 6.82292 17.4572 7.16252 17.6091 7.56828L19.4312 6.88025C19.2224 6.26279 18.8381 5.72472 18.2781 5.26604C17.7182 4.80735 17.0966 4.55155 16.4133 4.49863V3.1755H14.4203V4.49863C13.4713 4.69268 12.7311 5.0808 12.1996 5.66298C11.6682 6.24515 11.4024 6.89789 11.4024 7.6212C11.4024 8.45036 11.6634 9.12074 12.1854 9.63235C12.7073 10.144 13.5283 10.585 14.6481 10.9555C15.8439 11.3612 16.6743 11.7229 17.1393 12.0404C17.6043 12.358 17.8368 12.7726 17.8368 13.2842C17.8368 13.8664 17.6138 14.2942 17.1678 14.5676C16.7217 14.8411 16.1855 14.9778 15.5592 14.9778C14.9328 14.9778 14.3776 14.7969 13.8936 14.4353C13.4096 14.0736 13.0537 13.5312 12.826 12.8079L10.9469 13.4959C11.2126 14.3427 11.6254 15.0263 12.1854 15.5467C12.7453 16.0671 13.4713 16.4244 14.3634 16.6185V17.9945ZM15.3883 21.17C13.813 21.17 12.3325 20.8921 10.9469 20.3364C9.56131 19.7807 8.35604 19.0265 7.33109 18.0739C6.30614 17.1212 5.49472 16.001 4.89683 14.7132C4.29894 13.4253 4 12.0493 4 10.585C4 9.12074 4.29894 7.74469 4.89683 6.45685C5.49472 5.16901 6.30614 4.04876 7.33109 3.09611C8.35604 2.14346 9.56131 1.38928 10.9469 0.833569C12.3325 0.277856 13.813 0 15.3883 0C16.9637 0 18.4442 0.277856 19.8298 0.833569C21.2154 1.38928 22.4207 2.14346 23.4456 3.09611C24.4706 4.04876 25.282 5.16901 25.8799 6.45685C26.4778 7.74469 26.7767 9.12074 26.7767 10.585C26.7767 12.0493 26.4778 13.4253 25.8799 14.7132C25.282 16.001 24.4706 17.1212 23.4456 18.0739C22.4207 19.0265 21.2154 19.7807 19.8298 20.3364C18.4442 20.8921 16.9637 21.17 15.3883 21.17Z" fill="white"/>
</g>
<defs>
<filter id="filter0_d_5_250" x="0" y="0" width="30.7766" height="29.17" filterUnits="userSpaceOnUse" color-interpolation-filters="sRGB">
<feFlood flood-opacity="0" result="BackgroundImageFix"/>
<feColorMatrix in="SourceAlpha" type="matrix" values="0 0 0 0 0 0 0 0 0 0 0 0 0 0 0 0 0 0 127 0" result="hardAlpha"/>
<feOffset dy="4"/>
<feGaussianBlur stdDeviation="2"/>
<feComposite in2="hardAlpha" operator="out"/>
<feColorMatrix type="matrix" values="0 0 0 0 0 0 0 0 0 0 0 0 0 0 0 0 0 0 0.25 0"/>
<feBlend mode="normal" in2="BackgroundImageFix" result="effect1_dropShadow_5_250"/>
<feBlend mode="normal" in="SourceGraphic" in2="effect1_dropShadow_5_250" result="shape"/>
</filter>
</defs>
</svg>
